<svg width="116" height="45" viewBox="0 0 116 45" fill="none" xmlns="http://www.w3.org/2000/svg">
<path d="M24.6513 19.8986V29.5253L20.6744 27.2012L20.6453 27.1845L20.6181 27.1687L18.6015 25.99L18.5588 25.9654L18.5316 25.9487L14.4829 23.5833L14.4131 23.542L12.3819 22.3554L12.3266 22.323V27.2002L12.3547 27.1845L14.3859 28.3721L14.4131 28.3878L14.4558 28.4124L16.4723 29.5911L16.4995 29.6069L18.5045 30.7788L18.5316 30.7945L18.5734 30.819L20.4783 31.933L20.5909 31.9978L20.6181 32.0135L24.6513 34.3711V29.6569L33 24.7778L24.6513 19.8986Z" fill="#F3F3F5"/>
<path d="M8.34777 15.1845L10.2955 16.322L10.3372 16.3475L12.3266 17.5096L12.3819 17.542L18.5316 21.1353L18.6015 21.1766L20.4783 22.2738V17.6235L24.6513 15.1845V10.3711L20.4783 12.8102V17.4605L12.3819 12.7287L12.3266 12.6962L10.3372 11.5342L10.2955 11.5086L8.34777 10.3711V15.0852L6.21958 16.3298L6.17689 16.3544L0 19.9644L2.03211 21.152L2.07384 21.1766L4.11857 22.3711L4.17486 22.4045L6.14971 23.5587L6.19241 23.5833L8.23617 24.7778L8.34777 24.8436V15.1845Z" fill="#F3F3F5"/>
<path d="M10.3372 28.3632L10.2955 28.3878L10.2683 28.4035L8.34777 29.5253V34.3711L10.2955 33.2336L10.3226 33.2169L10.3372 33.209L10.3653 33.1923L12.3266 32.0459V27.2002L12.3256 27.2011L10.3372 28.3632Z" fill="#F3F3F5"/>
<path d="M107.404 31.3722V18.2812H110.396V20.4631H110.532C110.771 19.7074 111.18 19.125 111.759 18.7159C112.345 18.3011 113.012 18.0938 113.762 18.0938C113.933 18.0938 114.123 18.1023 114.333 18.1193C114.549 18.1307 114.728 18.1506 114.87 18.179V21.017C114.74 20.9716 114.532 20.9318 114.248 20.8977C113.97 20.858 113.7 20.8381 113.438 20.8381C112.876 20.8381 112.37 20.9602 111.921 21.2045C111.478 21.4432 111.129 21.7756 110.873 22.2017C110.617 22.6278 110.49 23.1193 110.49 23.6761V31.3722H107.404Z" fill="#F3F3F5"/>
<path d="M97.8699 31.6349C97.0404 31.6349 96.2932 31.4872 95.6285 31.1918C94.9694 30.8906 94.4466 30.4474 94.0603 29.8622C93.6796 29.277 93.4893 28.5554 93.4893 27.6974C93.4893 26.9588 93.6256 26.348 93.8983 25.8651C94.1711 25.3821 94.5432 24.9957 95.0148 24.706C95.4864 24.4162 96.0177 24.1974 96.6086 24.0497C97.2052 23.8963 97.8216 23.7855 98.458 23.7173C99.2251 23.6378 99.8472 23.5668 100.324 23.5043C100.802 23.4361 101.148 23.3338 101.364 23.1974C101.586 23.0554 101.697 22.8366 101.697 22.5412V22.4901C101.697 21.848 101.506 21.3509 101.126 20.9986C100.745 20.6463 100.197 20.4702 99.4807 20.4702C98.7251 20.4702 98.1256 20.6349 97.6824 20.9645C97.2449 21.294 96.9495 21.6832 96.7961 22.1321L93.9154 21.723C94.1427 20.9276 94.5177 20.2628 95.0404 19.7287C95.5631 19.1889 96.2023 18.7855 96.958 18.5185C97.7137 18.2457 98.5489 18.1094 99.4637 18.1094C100.094 18.1094 100.722 18.1832 101.347 18.331C101.972 18.4787 102.543 18.723 103.06 19.0639C103.577 19.3991 103.992 19.8565 104.305 20.4361C104.623 21.0156 104.782 21.7401 104.782 22.6094V31.3707H101.816V29.5724H101.714C101.526 29.9361 101.262 30.277 100.921 30.5952C100.586 30.9077 100.163 31.1605 99.6512 31.3537C99.1455 31.5412 98.5518 31.6349 97.8699 31.6349ZM98.6711 29.3679C99.2904 29.3679 99.8273 29.2457 100.282 29.0014C100.736 28.7514 101.086 28.4219 101.33 28.0128C101.58 27.6037 101.705 27.1577 101.705 26.6747V25.1321C101.609 25.2116 101.444 25.2855 101.211 25.3537C100.984 25.4219 100.728 25.4815 100.444 25.5327C100.16 25.5838 99.8785 25.6293 99.6001 25.669C99.3216 25.7088 99.0802 25.7429 98.8756 25.7713C98.4154 25.8338 98.0035 25.9361 97.6398 26.0781C97.2762 26.2202 96.9893 26.419 96.779 26.6747C96.5688 26.9247 96.4637 27.2486 96.4637 27.6463C96.4637 28.2145 96.6711 28.6435 97.0858 28.9332C97.5006 29.223 98.029 29.3679 98.6711 29.3679Z" fill="#F3F3F5"/>
<path d="M84.3236 31.6026C83.2952 31.6026 82.3747 31.3384 81.5622 30.81C80.7497 30.2816 80.1077 29.5146 79.6361 28.5089C79.1645 27.5032 78.9287 26.2816 78.9287 24.8441C78.9287 23.3896 79.1674 22.1623 79.6446 21.1623C80.1276 20.1566 80.7781 19.3981 81.5963 18.8867C82.4145 18.3697 83.3264 18.1112 84.3321 18.1112C85.0992 18.1112 85.7298 18.2418 86.2242 18.5032C86.7185 18.7589 87.1105 19.0685 87.4003 19.4322C87.6901 19.7901 87.9145 20.1282 88.0736 20.4464H88.2014V13.918H91.2952V31.3725H88.2611V29.31H88.0736C87.9145 29.6282 87.6844 29.9663 87.3833 30.3242C87.0821 30.6765 86.6844 30.9776 86.1901 31.2276C85.6958 31.4776 85.0736 31.6026 84.3236 31.6026ZM85.1844 29.0714C85.8378 29.0714 86.3946 28.8952 86.8548 28.543C87.3151 28.185 87.6645 27.6879 87.9031 27.0515C88.1418 26.4151 88.2611 25.6737 88.2611 24.8271C88.2611 23.9805 88.1418 23.2447 87.9031 22.6197C87.6702 21.9947 87.3236 21.5089 86.8634 21.1623C86.4088 20.8157 85.8492 20.6424 85.1844 20.6424C84.4969 20.6424 83.923 20.8214 83.4628 21.1793C83.0026 21.5373 82.656 22.0316 82.423 22.6623C82.1901 23.293 82.0736 24.0146 82.0736 24.8271C82.0736 25.6452 82.1901 26.3754 82.423 27.0174C82.6617 27.6538 83.0111 28.1566 83.4713 28.5259C83.9372 28.8896 84.5083 29.0714 85.1844 29.0714Z" fill="#F3F3F5"/>
<path d="M71.5147 31.6264C70.2022 31.6264 69.0687 31.3537 68.1141 30.8082C67.1653 30.2571 66.4351 29.4787 65.9238 28.473C65.4124 27.4616 65.1567 26.2713 65.1567 24.902C65.1567 23.5554 65.4124 22.3736 65.9238 21.3565C66.4408 20.3338 67.1624 19.5384 68.0886 18.9702C69.0147 18.3963 70.1028 18.1094 71.3528 18.1094C72.1596 18.1094 72.9209 18.2401 73.6369 18.5014C74.3584 18.7571 74.9948 19.1548 75.5459 19.6946C76.1028 20.2344 76.5403 20.9219 76.8584 21.7571C77.1766 22.5866 77.3357 23.5753 77.3357 24.723V25.669H66.6056V23.5895H74.3783C74.3726 22.9986 74.2448 22.473 73.9948 22.0128C73.7448 21.5469 73.3954 21.1804 72.9465 20.9134C72.5033 20.6463 71.9863 20.5128 71.3954 20.5128C70.7647 20.5128 70.2107 20.6662 69.7334 20.973C69.2562 21.2741 68.884 21.6719 68.617 22.1662C68.3556 22.6548 68.2221 23.1918 68.2164 23.777V25.5923C68.2164 26.3537 68.3556 27.0071 68.634 27.5526C68.9124 28.0923 69.3016 28.5071 69.8016 28.7969C70.3016 29.081 70.8869 29.223 71.5573 29.223C72.0062 29.223 72.4124 29.1605 72.7761 29.0355C73.1397 28.9048 73.455 28.7145 73.7221 28.4645C73.9891 28.2145 74.1908 27.9048 74.3272 27.5355L77.2079 27.8594C77.0261 28.6207 76.6795 29.2855 76.1681 29.8537C75.6624 30.4162 75.0147 30.8537 74.2249 31.1662C73.4351 31.473 72.5317 31.6264 71.5147 31.6264Z" fill="#F3F3F5"/>
<path d="M57.2227 31.3722V18.2812H60.2141V20.4631H60.3505C60.5891 19.7074 60.9982 19.125 61.5778 18.7159C62.163 18.3011 62.8306 18.0938 63.5806 18.0938C63.7511 18.0938 63.9414 18.1023 64.1516 18.1193C64.3675 18.1307 64.5465 18.1506 64.6886 18.179V21.017C64.5579 20.9716 64.3505 20.9318 64.0664 20.8977C63.788 20.858 63.5181 20.8381 63.2567 20.8381C62.6942 20.8381 62.1886 20.9602 61.7397 21.2045C61.2965 21.4432 60.9471 21.7756 60.6914 22.2017C60.4357 22.6278 60.3079 23.1193 60.3079 23.6761V31.3722H57.2227Z" fill="#F3F3F5"/>
<path d="M42.7217 31.3725V13.918H45.8069V20.4464H45.9347C46.0938 20.1282 46.3183 19.7901 46.608 19.4322C46.8978 19.0685 47.2899 18.7589 47.7842 18.5032C48.2785 18.2418 48.9092 18.1112 49.6762 18.1112C50.6876 18.1112 51.5995 18.3697 52.412 18.8867C53.2302 19.3981 53.8779 20.1566 54.3552 21.1623C54.8382 22.1623 55.0796 23.3896 55.0796 24.8441C55.0796 26.2816 54.8438 27.5032 54.3722 28.5089C53.9007 29.5146 53.2586 30.2816 52.4461 30.81C51.6336 31.3384 50.7132 31.6026 49.6847 31.6026C48.9347 31.6026 48.3126 31.4776 47.8183 31.2276C47.324 30.9776 46.9262 30.6765 46.6251 30.3242C46.3296 29.9663 46.0995 29.6282 45.9347 29.31H45.7558V31.3725H42.7217ZM45.7472 24.8271C45.7472 25.6737 45.8666 26.4151 46.1052 27.0515C46.3495 27.6879 46.699 28.185 47.1535 28.543C47.6137 28.8952 48.1705 29.0714 48.824 29.0714C49.5058 29.0714 50.0768 28.8896 50.537 28.5259C50.9972 28.1566 51.3438 27.6538 51.5768 27.0174C51.8154 26.3754 51.9347 25.6452 51.9347 24.8271C51.9347 24.0146 51.8183 23.293 51.5853 22.6623C51.3524 22.0316 51.0058 21.5373 50.5455 21.1793C50.0853 20.8214 49.5115 20.6424 48.824 20.6424C48.1649 20.6424 47.6052 20.8157 47.145 21.1623C46.6847 21.5089 46.3353 21.9947 46.0967 22.6197C45.8637 23.2447 45.7472 23.9805 45.7472 24.8271Z" fill="#F3F3F5"/>
</svg>
