<svg width="33"  height="25" viewBox="0 0 33 25" fill="none" xmlns="http://www.w3.org/2000/svg">
<path d="M24.6513 9.8986V19.5253L20.6744 17.2012L20.6453 17.1845L20.6181 17.1687L18.6015 15.99L18.5588 15.9654L18.5316 15.9487L14.4829 13.5833L14.4131 13.542L12.3819 12.3554L12.3266 12.323V17.2002L12.3547 17.1845L14.3859 18.3721L14.4131 18.3878L14.4558 18.4124L16.4723 19.5911L16.4995 19.6069L18.5045 20.7788L18.5316 20.7945L18.5734 20.819L20.4783 21.933L20.5909 21.9978L20.6181 22.0135L24.6513 24.3711V19.6569L33 14.7778L24.6513 9.8986Z" fill="#F3F3F5"/>
<path d="M8.34777 5.18445L10.2955 6.32198L10.3372 6.34752L12.3266 7.5096L12.3819 7.54202L18.5316 11.1353L18.6015 11.1766L20.4783 12.2738V7.62355L24.6513 5.18445V0.371094L20.4783 2.81019V7.46048L12.3819 2.72866L12.3266 2.69624L10.3372 1.53416L10.2955 1.50862L8.34777 0.371094V5.08524L6.21958 6.32983L6.17689 6.35439L0 9.96441L2.03211 11.152L2.07384 11.1766L4.11857 12.3711L4.17486 12.4045L6.14971 13.5587L6.19241 13.5833L8.23617 14.7778L8.34777 14.8436V5.18445Z" fill="#F3F3F5"/>
<path d="M10.3372 18.3632L10.2955 18.3878L10.2683 18.4035L8.34777 19.5253V24.3711L10.2955 23.2336L10.3226 23.2169L10.3372 23.209L10.3653 23.1923L12.3266 22.0459V17.2002L12.3256 17.2011L10.3372 18.3632Z" fill="#F3F3F5"/>
</svg>
